<?xml version="1.0" encoding="iso-8859-1"?>
<!-- Uploaded to: SVG Repo, www.svgrepo.com, Generator: SVG Repo Mixer Tools -->
<svg fill="#000000" height="800px" width="800px" version="1.1" id="Layer_1" xmlns="http://www.w3.org/2000/svg" xmlns:xlink="http://www.w3.org/1999/xlink" 
	 viewBox="0 0 512.001 512.001" xml:space="preserve">
<g>
	<g>
		<path d="M499.17,440.785L303.736,254.819L476.114,73.674c9.112-0.237,18.152-3.815,25.089-10.754
			c14.369-14.37,14.369-37.752,0-52.121c-14.371-14.37-37.752-14.371-52.122,0c-6.733,6.734-10.53,15.615-10.771,25.098
			L256.004,209.382L73.687,35.889c-0.243-9.48-4.04-18.36-10.771-25.091C55.954,3.837,46.699,0.004,36.855,0.004
			c-9.844,0-19.1,3.835-26.06,10.795S0,27.015,0,36.859c0,9.844,3.835,19.1,10.795,26.06c6.737,6.735,15.622,10.532,25.11,10.771
			l172.357,181.121L12.829,440.79c-8.131,7.736-12.685,18.178-12.824,29.401c-0.139,11.222,4.155,21.776,12.091,29.713
			c7.812,7.812,18.157,12.095,29.183,12.095c0.176,0,0.351,0,0.527-0.003c11.224-0.139,21.665-4.694,29.403-12.823l184.8-194.198
			l184.785,194.19c7.74,8.134,18.183,12.688,29.406,12.827c0.176,0.001,0.351,0.003,0.527,0.003
			c11.023,0,21.368-4.283,29.172-12.087c7.805-7.788,12.103-18.157,12.103-29.201C512,459.284,507.443,448.656,499.17,440.785z
			 M463.987,25.704c3.076-3.075,7.116-4.613,11.156-4.613s8.08,1.539,11.156,4.613c6.151,6.151,6.151,16.16,0,22.311
			c-6.152,6.151-16.16,6.151-22.313,0c-2.981-2.981-4.622-6.942-4.622-11.156C459.366,32.646,461.008,28.683,463.987,25.704z
			 M48.012,48.015c-2.981,2.981-6.942,4.62-11.156,4.62c-4.213,0-8.176-1.64-11.155-4.62c-2.981-2.979-4.622-6.942-4.622-11.156
			c0-4.214,1.641-8.176,4.622-11.155c2.979-2.981,6.941-4.622,11.155-4.622c4.214,0,8.176,1.641,11.156,4.622
			c2.981,2.979,4.62,6.941,4.62,11.155C52.632,41.073,50.992,45.035,48.012,48.015z M58.405,66.759
			c1.588-1.149,3.099-2.425,4.511-3.838c1.417-1.416,2.695-2.931,3.846-4.522L240.715,223.93l-17.183,16.352L58.405,66.759z
			 M55.939,484.639c-3.787,3.981-8.899,6.21-14.394,6.279c-5.465,0.052-10.659-2.035-14.546-5.919
			c-3.886-3.885-5.988-9.051-5.919-14.546c0.067-5.495,2.298-10.605,6.279-14.393L445.238,58.403
			c1.151,1.591,2.43,3.104,3.843,4.519c1.422,1.422,2.936,2.697,4.516,3.838L55.939,484.639z M485.001,484.995
			c-3.886,3.886-9.064,5.988-14.542,5.92c-5.495-0.067-10.608-2.299-14.398-6.281L270.556,289.686l18.649-19.598L484.64,456.056
			c4.05,3.855,6.281,9.057,6.281,14.651C490.921,476.111,488.822,481.182,485.001,484.995z"/>
	</g>
</g>
</svg>